<svg xmlns="http://www.w3.org/2000/svg" width="40" height="40" viewBox="0 0 40 40">
    <g fill="none" fill-rule="evenodd">
        <circle cx="19.965" cy="19.965" r="19.965" fill="#ED5E42"/>
        <g fill="#FFF">
            <path d="M23.022 12.281l2.29-4.978-1.114-.48-2.29 4.979a5.428 5.428 0 0 1 1.114.48M32.352 14.233l-.313-1.14-6.768 1.74c.148.365.255.747.314 1.139l6.767-1.74M24.749 13.864L27.03 12l-.787-.901-2.28 1.864c.3.272.562.576.786.902M20.786 11.585l-.094-3.479-1.22.03.095 3.48a5.47 5.47 0 0 1 1.219-.03M15.329 6.113l-1.083.541 3.097 5.79c.339-.22.703-.402 1.083-.542l-3.097-5.79M13.356 10.927l-.732.943 3.095 2.246c.208-.345.454-.661.73-.944l-3.093-2.245M8.898 13.836l-.247 1.155 6.36 1.27c.035-.386.117-.774.248-1.156l-6.361-1.269M25.405 18.23l3.758.674.222-1.16-3.757-.674c-.028.387-.1.775-.223 1.16M24.726 30.546c-1.013.758-1.752.99-2.17 1.057l-.402-.623c.568-.242 1.624-.968 1.624-.968l-.55-.704a6.85 6.85 0 0 1-1.67.864c-.284.103-.557.186-.808.254-.255.07-.488.124-.687.17-.956-.703-3.4-2.365-4.319-3-.745-.516-1.223-1.532-.42-2.47l3.68-3.482 4.474 1.616c-.045.504-.58.848-1.074.681l-3.188-1.129-3.081 2.983.661.605 2.649-2.493 3.218 1.07c-.28.885-1.27.93-1.977.564l-.99-.504c-.292 1.052-1.226 1.65-1.991 1.89l2.112 1.358.306-.416c.414-.563.946-.912 1.506-.99.105.002.211-.003.32-.017.445.019 1.054.14 1.52.794l.687-.71c-.175-.361-.8-.754-1.17-.83.427-.33.693-.907.582-1.534.423-.206.75-.629.858-1.135.889.405 1.214 1.47 1.076 2.576-.012.095-.027.19-.045.286 0 0-.191.603-.326.878a4.557 4.557 0 0 1-.539.838l-.027.033c-.08.098-.164.195-.254.29l.635.561.587-.66.415.62c-.101.353-.478 1.12-1.222 1.677zm-10.781-8.424c.472-.213 1.469-.767 1.83-1.054.022-.017.042-.034.06-.05l-.03.088-1.18 3.471-.68-2.455zm2.547-.272l.682-1.967c.462-.57.844-1.07 1.165-1.59a7.778 7.778 0 0 0 .79-1.686c.038-.11.074-.222.108-.337a.811.811 0 0 1 .188.117 1.408 1.408 0 0 1 .452.765c.02.08.033.16.04.244l-.006.005h.007c.006.076.007.151.001.228a3.11 3.11 0 0 1-.02.202c-.006.041-.014.08-.021.12-.006.032-.01.063-.018.093a2.463 2.463 0 0 1-.174.52c-.269.579-.753 1.012-1.39 1.336l.11.869-2.383 2.436.47-1.355zm3.895-3.155a4.33 4.33 0 0 1 .042-.136l.029-.083a3.546 3.546 0 0 1 .227-.5c.077-.136.163-.262.258-.374l.007-.008c.204-.237.45-.41.733-.486a5.809 5.809 0 0 0-.093.461l-.02.136a6.954 6.954 0 0 0-.064 1.192c.03 1.016.269 2.1.786 3.057l-1.909-.763c-.244-.727-.234-1.685.004-2.496zm5.716 8.65c1.175-2.484-.151-4.789-2.367-5.023a5.346 5.346 0 0 1-.227-.34c-.545-.891-.81-1.895-.891-2.884a8.756 8.756 0 0 1-.013-1.206c.022-.4.07-.787.137-1.154l.025-.136c.023-.117.047-.231.073-.343a2.061 2.061 0 0 0-1.246-.08 2.236 2.236 0 0 0-.908.451 2.664 2.664 0 0 0-.347-.617 2.822 2.822 0 0 0-1.792-1.089c-.07.339-.164.674-.276 1.004l-.015.04a9.36 9.36 0 0 1-.422 1.016l-.057.114a9.908 9.908 0 0 1-.558.97 9.486 9.486 0 0 1-1.946 2.17 7.136 7.136 0 0 1-1.5.943c-.799.364-.979.843-.802 1.375.27.81.76 2.167.81 3.024.096 1.627.277 2.175 1.485 2.992 1.094.742 4.44 3.103 4.478 3.13l.11.078 1.363-.31.83 1.14c2.381 0 4.632-1.975 4.98-4.046l-.924-1.22z"/>
        </g>
    </g>
</svg>
